<svg width="20" height="20" viewBox="0 0 20 20" fill="none" xmlns="http://www.w3.org/2000/svg">
<g clip-path="url(#clip0_8_503)">
<path d="M9.00891 1.24999C8.7745 1.01565 8.45661 0.884003 8.12516 0.884003C7.7937 0.884003 7.47582 1.01565 7.24141 1.24999L0.182656 8.30749C0.0652979 8.42484 -0.000633242 8.58402 -0.00063324 8.74999C-0.000633237 8.91596 0.065298 9.07513 0.182656 9.19249C0.300015 9.30984 0.459187 9.37578 0.625156 9.37578C0.791126 9.37578 0.950298 9.30984 1.06766 9.19249L1.25016 9.00874V15.625C1.25016 16.1223 1.4477 16.5992 1.79933 16.9508C2.15096 17.3024 2.62788 17.5 3.12516 17.5H3.81266C3.77089 17.2943 3.74995 17.0849 3.75016 16.875V11.7687C3.45157 11.6631 3.18462 11.4835 2.9742 11.2468C2.76379 11.01 2.61677 10.7238 2.54688 10.4149C2.47698 10.106 2.48648 9.78441 2.57448 9.48015C2.66249 9.1759 2.82614 8.89889 3.05016 8.67499L9.74141 1.98249L9.00891 1.24999Z" fill="black"/>
<path d="M10.9913 2.49999C11.2257 2.26565 11.5435 2.134 11.875 2.134C12.2065 2.134 12.5243 2.26565 12.7588 2.49999L15 4.74124V3.12499C15 2.95923 15.0659 2.80025 15.1831 2.68304C15.3003 2.56583 15.4592 2.49999 15.625 2.49999H16.875C17.0408 2.49999 17.1997 2.56583 17.3169 2.68304C17.4342 2.80025 17.5 2.95923 17.5 3.12499V7.24124L19.8175 9.55749C19.9349 9.67484 20.0008 9.83402 20.0008 9.99999C20.0008 10.166 19.9349 10.3251 19.8175 10.4425C19.7001 10.5598 19.541 10.6258 19.375 10.6258C19.209 10.6258 19.0499 10.5598 18.9325 10.4425L18.75 10.2587V16.875C18.75 17.3723 18.5525 17.8492 18.2008 18.2008C17.8492 18.5524 17.3723 18.75 16.875 18.75H6.875C6.37772 18.75 5.90081 18.5524 5.54918 18.2008C5.19755 17.8492 5 17.3723 5 16.875V10.2587L4.8175 10.4425C4.75939 10.5006 4.69041 10.5467 4.61448 10.5781C4.53856 10.6096 4.45718 10.6258 4.375 10.6258C4.29282 10.6258 4.21145 10.6096 4.13552 10.5781C4.0596 10.5467 3.99061 10.5006 3.9325 10.4425C3.87439 10.3844 3.8283 10.3154 3.79685 10.2395C3.7654 10.1635 3.74921 10.0822 3.74921 9.99999C3.74921 9.91781 3.7654 9.83643 3.79685 9.76051C3.8283 9.68458 3.87439 9.6156 3.9325 9.55749L10.9913 2.49999Z" fill="black"/>
</g>
<defs>
<clipPath id="clip0_8_503">
<rect width="20" height="20" fill="white"/>
</clipPath>
</defs>
</svg>
