<svg width="16" height="16" viewBox="0 0 16 16" fill="none" xmlns="http://www.w3.org/2000/svg">
<g clip-path="url(#clip0_15_210)">
<rect width="16" height="16" fill="#A5ACE6"/>
<path d="M8 15C6.14348 15 4.36301 14.2625 3.05025 12.9497C1.7375 11.637 1 9.85652 1 8C1 6.14348 1.7375 4.36301 3.05025 3.05025C4.36301 1.7375 6.14348 1 8 1C9.85652 1 11.637 1.7375 12.9497 3.05025C14.2625 4.36301 15 6.14348 15 8C15 9.85652 14.2625 11.637 12.9497 12.9497C11.637 14.2625 9.85652 15 8 15ZM8 16C10.1217 16 12.1566 15.1571 13.6569 13.6569C15.1571 12.1566 16 10.1217 16 8C16 5.87827 15.1571 3.84344 13.6569 2.34315C12.1566 0.842855 10.1217 0 8 0C5.87827 0 3.84344 0.842855 2.34315 2.34315C0.842855 3.84344 0 5.87827 0 8C0 10.1217 0.842855 12.1566 2.34315 13.6569C3.84344 15.1571 5.87827 16 8 16Z" fill="black"/>
<path d="M5.19999 5.88601C5.19862 5.9183 5.20387 5.95053 5.21542 5.98072C5.22697 6.01091 5.24457 6.03842 5.26714 6.06155C5.28972 6.08469 5.31678 6.10296 5.34668 6.11525C5.37658 6.12754 5.40867 6.13358 5.44099 6.13301H6.26599C6.40399 6.13301 6.51399 6.02001 6.53199 5.88301C6.62199 5.22701 7.07199 4.74901 7.87399 4.74901C8.55999 4.74901 9.18799 5.09201 9.18799 5.91701C9.18799 6.55201 8.81399 6.84401 8.22299 7.28801C7.54999 7.77701 7.01699 8.34801 7.05499 9.27501L7.05799 9.49201C7.05904 9.55761 7.08584 9.62018 7.13261 9.6662C7.17938 9.71222 7.24237 9.73801 7.30799 9.73801H8.11899C8.18529 9.73801 8.24888 9.71167 8.29576 9.66478C8.34265 9.6179 8.36899 9.55431 8.36899 9.48801V9.38301C8.36899 8.66501 8.64199 8.45601 9.37899 7.89701C9.98799 7.43401 10.623 6.92001 10.623 5.84101C10.623 4.33001 9.34699 3.60001 7.94999 3.60001C6.68299 3.60001 5.29499 4.19001 5.19999 5.88601ZM6.75699 11.649C6.75699 12.182 7.18199 12.576 7.76699 12.576C8.37599 12.576 8.79499 12.182 8.79499 11.649C8.79499 11.097 8.37499 10.709 7.76599 10.709C7.18199 10.709 6.75699 11.097 6.75699 11.649Z" fill="black"/>
</g>
<defs>
<clipPath id="clip0_15_210">
<rect width="16" height="16" fill="white"/>
</clipPath>
</defs>
</svg>
