<svg width="42" height="42" viewBox="0 0 32 32" fill="none" xmlns="http://www.w3.org/2000/svg">
<path fill-rule="evenodd" clip-rule="evenodd" d="M5.91097 6.36366C4.74227 8.79371 4 12.2 4 16C4 19.8 4.74227 23.2063 5.91097 25.6363C7.11135 28.1323 8.615 29.3333 10 29.3333C11.385 29.3333 12.8886 28.1323 14.0891 25.6363C15.2577 23.2063 16 19.8 16 16C16 12.2 15.2577 8.79371 14.0891 6.36366C12.8886 3.86774 11.385 2.66666 10 2.66666C8.615 2.66666 7.11135 3.86774 5.91097 6.36366ZM7.75 16C7.75 20.6508 8.75736 24.4211 10 24.4211C11.1474 24.4211 12.0942 21.2067 12.2326 17.0527H10.75C10.1287 17.0527 9.625 16.5813 9.625 16C9.625 15.4187 10.1287 14.9473 10.75 14.9473H12.2326C12.0942 10.7933 11.1474 7.57894 10 7.57894C8.75736 7.57894 7.75 11.3492 7.75 16Z" fill="black"/>
<path opacity="0.5" d="M14.0891 25.6363C12.8887 28.1323 11.385 29.3333 10 29.3333H21.8287C25.2371 29.3333 28.0001 23.3637 28.0001 16C28.0001 8.63619 25.2371 2.66666 21.8287 2.66666H10C11.385 2.66666 12.8887 3.86774 14.0891 6.36366C15.2577 8.79371 16 12.2 16 16C16 19.8 15.2577 23.2063 14.0891 25.6363Z" fill="black"/>
</svg>
