<svg width="20" height="20" viewBox="0 0 20 20" fill="none" xmlns="http://www.w3.org/2000/svg">
<g clip-path="url(#clip0_58_23)">
<rect width="20" height="20" fill="#B0C8D6"/>
<path d="M3.14997 4.39375C3.3911 3.83125 3.79209 3.35194 4.30318 3.01528C4.81427 2.67863 5.41297 2.49946 6.02497 2.5H13.9775C15.2275 2.5 16.3575 3.245 16.85 4.39375L17.84 6.70375C17.9337 6.9225 18.1025 7.1025 18.315 7.20875C18.94 7.52125 19.3837 8.1025 19.5212 8.78625L19.94 10.885C19.9816 11.0867 20.0021 11.2908 20.0012 11.4975V12.0138C20.0012 13.0313 19.5137 13.9425 18.7512 14.51V16.875C18.7512 17.0408 18.6854 17.1997 18.5682 17.3169C18.451 17.4342 18.292 17.5 18.1262 17.5H15.6262C15.4605 17.5 15.3015 17.4342 15.1843 17.3169C15.0671 17.1997 15.0012 17.0408 15.0012 16.875V15.2025C13.3862 15.2625 11.57 15.3125 10.0012 15.3125C8.43247 15.3125 6.61622 15.2625 5.00122 15.2025V16.875C5.00122 17.0408 4.93537 17.1997 4.81816 17.3169C4.70095 17.4342 4.54198 17.5 4.37622 17.5H1.87622C1.71046 17.5 1.55149 17.4342 1.43428 17.3169C1.31707 17.1997 1.25122 17.0408 1.25122 16.875V14.51C0.488721 13.9425 0.0012207 13.0313 0.0012207 12.0138V11.4975C0.00143049 11.2918 0.0219467 11.0867 0.0624707 10.885L0.481221 8.785C0.618721 8.1025 1.06247 7.52 1.68622 7.20875C1.90018 7.10268 2.06911 6.92355 2.16247 6.70375L3.15247 4.39375H3.14997ZM3.74997 12.5C4.08149 12.5 4.39943 12.3683 4.63385 12.1339C4.86827 11.8995 4.99997 11.5815 4.99997 11.25C4.99997 10.9185 4.86827 10.6005 4.63385 10.3661C4.39943 10.1317 4.08149 10 3.74997 10C3.41845 10 3.10051 10.1317 2.86609 10.3661C2.63167 10.6005 2.49997 10.9185 2.49997 11.25C2.49997 11.5815 2.63167 11.8995 2.86609 12.1339C3.10051 12.3683 3.41845 12.5 3.74997 12.5ZM16.25 12.5C16.5815 12.5 16.8994 12.3683 17.1339 12.1339C17.3683 11.8995 17.5 11.5815 17.5 11.25C17.5 10.9185 17.3683 10.6005 17.1339 10.3661C16.8994 10.1317 16.5815 10 16.25 10C15.9184 10 15.6005 10.1317 15.3661 10.3661C15.1317 10.6005 15 10.9185 15 11.25C15 11.5815 15.1317 11.8995 15.3661 12.1339C15.6005 12.3683 15.9184 12.5 16.25 12.5ZM7.49997 10C7.16845 10 6.85051 10.1317 6.61609 10.3661C6.38167 10.6005 6.24997 10.9185 6.24997 11.25C6.24997 11.5815 6.38167 11.8995 6.61609 12.1339C6.85051 12.3683 7.16845 12.5 7.49997 12.5H12.5C12.8315 12.5 13.1494 12.3683 13.3839 12.1339C13.6183 11.8995 13.75 11.5815 13.75 11.25C13.75 10.9185 13.6183 10.6005 13.3839 10.3661C13.1494 10.1317 12.8315 10 12.5 10H7.49997ZM3.63247 6.48625C3.58361 6.58707 3.56218 6.69898 3.57034 6.81072C3.5785 6.92245 3.61597 7.03006 3.67896 7.12271C3.74195 7.21536 3.82824 7.28977 3.92915 7.33845C4.03005 7.38713 4.142 7.40836 4.25372 7.4C5.39122 7.30875 8.44122 7.1875 9.99997 7.1875C11.5587 7.1875 14.61 7.30875 15.7462 7.4C15.8579 7.40836 15.9699 7.38713 16.0708 7.33845C16.1717 7.28977 16.258 7.21536 16.321 7.12271C16.384 7.03006 16.4214 6.92245 16.4296 6.81072C16.4378 6.69898 16.4163 6.58707 16.3675 6.48625L15.1725 4.095C15.1205 3.99132 15.0407 3.90413 14.9421 3.84321C14.8434 3.78228 14.7297 3.75001 14.6137 3.75H5.38622C5.27025 3.75001 5.15656 3.78228 5.05788 3.84321C4.95921 3.90413 4.87943 3.99132 4.82747 4.095L3.63247 6.48625Z" fill="#2A38B1"/>
</g>
<defs>
<clipPath id="clip0_58_23">
<rect width="20" height="20" fill="white"/>
</clipPath>
</defs>
</svg>
