<svg width="20" height="20" viewBox="0 0 20 20" fill="none" xmlns="http://www.w3.org/2000/svg">
<g clip-path="url(#clip0_58_27)">
<path d="M11.25 4.375H13.75L16.875 13.75" stroke="#2A38B1" stroke-width="2" stroke-miterlimit="10" stroke-linecap="round" stroke-linejoin="round"/>
<path d="M16.875 16.25C18.2557 16.25 19.375 15.1307 19.375 13.75C19.375 12.3693 18.2557 11.25 16.875 11.25C15.4943 11.25 14.375 12.3693 14.375 13.75C14.375 15.1307 15.4943 16.25 16.875 16.25Z" stroke="#2A38B1" stroke-width="2" stroke-miterlimit="10" stroke-linecap="round" stroke-linejoin="round"/>
<path d="M3.125 16.25C4.50571 16.25 5.625 15.1307 5.625 13.75C5.625 12.3693 4.50571 11.25 3.125 11.25C1.74429 11.25 0.625 12.3693 0.625 13.75C0.625 15.1307 1.74429 16.25 3.125 16.25Z" stroke="#2A38B1" stroke-width="2" stroke-miterlimit="10" stroke-linecap="round" stroke-linejoin="round"/>
<path d="M3.125 8.75C5.875 8.75 8.125 11 8.125 13.75H11.875C11.875 11 14.125 8.75 16.875 8.75C17.375 8.75 17.9375 8.8125 18.375 9" stroke="#2A38B1" stroke-width="2" stroke-miterlimit="10" stroke-linecap="round" stroke-linejoin="round"/>
<path d="M14.375 6.875H10.625L10.375 7.25C9.375 8.875 7.5 9.75 5.625 9.375" stroke="#2A38B1" stroke-width="2" stroke-miterlimit="10" stroke-linecap="round" stroke-linejoin="round"/>
</g>
<defs>
<clipPath id="clip0_58_27">
<rect width="20" height="20" fill="white"/>
</clipPath>
</defs>
</svg>
