<svg width="25" height="25" viewBox="0 0 25 25" fill="none" xmlns="http://www.w3.org/2000/svg">
<path d="M2.26637 19.0124L0.00399715 13.6495C-0.00617538 13.623 0.00603166 13.5925 0.0324802 13.5824C0.0385837 13.5803 0.0467218 13.5783 0.0528253 13.5783H4.68132L5.53175 9.51131C5.53582 9.4869 5.5582 9.47062 5.58261 9.47062H7.01083V5.59285C7.00676 5.56437 7.03118 5.54199 7.05966 5.54199H7.7697C7.79819 5.54199 7.8226 5.56437 7.8226 5.59285V9.46859H8.6832V7.31811C8.6832 7.28963 8.70558 7.26725 8.73609 7.26725H9.44614C9.47462 7.26725 9.497 7.28963 9.497 7.31811V9.46859H14.7969L14.8294 9.47062C15.2669 9.50724 15.6758 9.59473 16.0501 9.74528C16.4265 9.89583 16.7683 10.1074 17.0735 10.3902C17.3726 10.6669 17.631 11.0087 17.8446 11.4237C18.0562 11.8368 18.223 12.323 18.339 12.8886L18.3471 12.9639V12.97V13.5783H24.947C24.9755 13.5783 24.9999 13.6007 24.9999 13.6312C24.9999 13.6454 24.9938 13.6597 24.9837 13.6698L22.5199 16.2984C22.3327 16.4978 22.2025 16.6423 22.0763 16.7806L22.0743 16.7826C21.704 17.1895 21.3663 17.5659 20.9757 17.9016C20.583 18.2393 20.1395 18.5384 19.5658 18.7927C19.4437 18.8477 19.3196 18.8965 19.1934 18.9433C19.0673 18.9901 18.9412 19.0328 18.8089 19.0715C18.6808 19.1101 18.5485 19.1447 18.4142 19.1752C18.282 19.2057 18.1457 19.2322 18.0053 19.2566C13.9892 19.7062 6.77076 19.2627 2.40471 19.2627C2.38233 19.2627 2.36199 19.2485 2.35589 19.2261L2.26637 19.0124ZM13.5274 11.143H16.6808L16.6422 11.1003C16.6035 11.0596 16.5649 11.0209 16.5242 10.9843C16.2943 10.7727 16.0318 10.612 15.7409 10.496C15.45 10.38 15.1265 10.3109 14.7806 10.2824H6.19703L5.50937 13.5783H17.5353V13.0066C17.5272 12.9659 17.517 12.9232 17.5068 12.8825L17.4865 12.795H13.5274C13.4989 12.795 13.4765 12.7726 13.4765 12.7421V11.1938C13.4765 11.1654 13.4989 11.143 13.5274 11.143ZM10.2823 11.143H11.8835C11.912 11.143 11.9343 11.1654 11.9343 11.1959V12.7808C11.9343 12.8092 11.912 12.8337 11.8835 12.8337H10.2823C10.2538 12.8337 10.2294 12.8113 10.2294 12.7808V11.1959C10.2294 11.1654 10.2538 11.143 10.2823 11.143ZM1.19622 14.3921L2.90724 18.4489H17.9137C18.0256 18.4306 18.1355 18.4082 18.2454 18.3818C18.3573 18.3553 18.4692 18.3268 18.579 18.2943C18.6909 18.2617 18.8028 18.2231 18.9127 18.1824C19.0226 18.1417 19.1324 18.0969 19.2382 18.0501C19.7346 17.8304 20.1232 17.5639 20.4732 17.2607C20.8251 16.9556 21.1364 16.6117 21.4741 16.2374L21.7101 15.977C21.7874 15.8936 21.8607 15.8122 21.9278 15.741L23.1933 14.3921H1.19622Z" fill="#2A38B1"/>
</svg>
