<svg width="20" height="20" viewBox="0 0 20 20" fill="none" xmlns="http://www.w3.org/2000/svg">
<path d="M18.9625 9.2L16.25 6.15C16.1027 5.98407 15.9217 5.85143 15.7191 5.76091C15.5165 5.67039 15.2969 5.62405 15.075 5.625H12.575V3.4375C12.575 3.02526 12.4121 2.62971 12.1218 2.33704C11.8315 2.04437 11.4372 1.8783 11.025 1.875H2.20001C1.78561 1.875 1.38818 2.03962 1.09516 2.33265C0.802132 2.62567 0.637512 3.0231 0.637512 3.4375V14.0625C0.637512 14.4769 0.802132 14.8743 1.09516 15.1674C1.38818 15.4604 1.78561 15.625 2.20001 15.625H2.61251C2.63536 16.3091 2.92838 16.9564 3.4274 17.4249C3.92642 17.8935 4.59078 18.1452 5.27501 18.125C5.96046 18.1453 6.62617 17.8939 7.12718 17.4257C7.6282 16.9575 7.92394 16.3103 7.95001 15.625H12.5C12.5229 16.3091 12.8159 16.9564 13.3149 17.4249C13.8139 17.8935 14.4783 18.1452 15.1625 18.125C15.848 18.1453 16.5137 17.8939 17.0147 17.4257C17.5157 16.9575 17.8114 16.3103 17.8375 15.625C18.2399 15.6058 18.6197 15.4332 18.8987 15.1425C19.1777 14.8519 19.3348 14.4654 19.3375 14.0625V10.2375C19.3464 9.85699 19.2126 9.48692 18.9625 9.2ZM5.27501 16.5625C5.005 16.5832 4.73776 16.4963 4.53166 16.3206C4.32555 16.145 4.19733 15.8949 4.17501 15.625C4.19733 15.3551 4.32555 15.105 4.53166 14.9294C4.73776 14.7537 5.005 14.6668 5.27501 14.6875C5.54635 14.6666 5.81502 14.7532 6.02312 14.9286C6.23122 15.1039 6.36208 15.3541 6.38751 15.625C6.36208 15.8959 6.23122 16.1461 6.02312 16.3214C5.81502 16.4968 5.54635 16.5834 5.27501 16.5625ZM11.025 7.0875V14.0625H7.36251C7.10388 13.7636 6.78305 13.5248 6.42246 13.3628C6.06188 13.2009 5.67026 13.1197 5.27501 13.125C4.88187 13.1215 4.49267 13.2036 4.13438 13.3655C3.77609 13.5274 3.45727 13.7652 3.20001 14.0625H2.20001V3.4375H11.025V7.0875ZM12.5875 7.1875H15.0875L16.8875 9.225H12.5875V7.1875ZM15.1875 16.5625C14.9175 16.5832 14.6503 16.4963 14.4442 16.3206C14.238 16.145 14.1098 15.8949 14.0875 15.625C14.1098 15.3551 14.238 15.105 14.4442 14.9294C14.6503 14.7537 14.9175 14.6668 15.1875 14.6875C15.4588 14.6666 15.7275 14.7532 15.9356 14.9286C16.1437 15.1039 16.2746 15.3541 16.3 15.625C16.2746 15.8959 16.1437 16.1461 15.9356 16.3214C15.7275 16.4968 15.4588 16.5834 15.1875 16.5625ZM15.1875 13.125C14.7944 13.1215 14.4052 13.2036 14.0469 13.3655C13.6886 13.5274 13.3698 13.7652 13.1125 14.0625H12.5875V10.775H17.8V14.0625H17.275C17.0164 13.7636 16.6955 13.5248 16.335 13.3628C15.9744 13.2009 15.5828 13.1197 15.1875 13.125Z" fill="#2A38B1"/>
</svg>
