<svg width="20" height="20" viewBox="0 0 20 20" fill="none" xmlns="http://www.w3.org/2000/svg">
<g clip-path="url(#clip0_58_35)">
<path d="M5.98015 11.86C4.42351 11.86 3.15704 13.1265 3.15704 14.6831C3.15704 16.2397 4.42351 17.5062 5.98015 17.5062C7.53678 17.5062 8.80325 16.2397 8.80325 14.6831C8.80321 13.1265 7.53678 11.86 5.98015 11.86ZM6.98747 12.9571C7.17857 12.766 7.48838 12.766 7.67944 12.9571C7.87053 13.1482 7.87053 13.458 7.67944 13.6491C7.59651 13.732 7.35318 13.8449 7.10435 13.9462C6.99657 13.7823 6.85403 13.6433 6.68723 13.5397C6.78934 13.2883 6.90372 13.0409 6.98747 12.9571ZM5.98015 12.2532C6.25039 12.2532 6.46945 12.4723 6.46945 12.7425C6.46945 12.8615 6.37465 13.1188 6.26851 13.3696C6.17554 13.3492 6.07913 13.3382 5.98015 13.3382C5.88116 13.3382 5.78475 13.3492 5.69178 13.3696C5.58565 13.1187 5.49084 12.8614 5.49084 12.7425C5.49084 12.4723 5.70987 12.2532 5.98015 12.2532ZM4.28074 12.9571C4.47183 12.766 4.78165 12.766 4.9727 12.9571C5.05646 13.0409 5.17083 13.2883 5.27294 13.5398C5.1061 13.6433 4.9636 13.7823 4.85583 13.9462C4.60699 13.845 4.36371 13.732 4.28074 13.6491C4.08968 13.458 4.08968 13.1482 4.28074 12.9571ZM3.57686 14.6565C3.57686 14.3862 3.79592 14.1672 4.06616 14.1672C4.18214 14.1672 4.42976 14.2573 4.67461 14.3602C4.64903 14.4638 4.63516 14.5718 4.63516 14.6831C4.63516 14.7771 4.64492 14.8688 4.66336 14.9574C4.42219 15.0583 4.18038 15.1458 4.06616 15.1458C3.79596 15.1458 3.57686 14.9267 3.57686 14.6565ZM4.97274 16.3558C4.78165 16.5469 4.47183 16.5469 4.28078 16.3558C4.08968 16.1647 4.08968 15.8549 4.28078 15.6639C4.3607 15.5839 4.58965 15.4761 4.82891 15.3778C4.93579 15.5543 5.08228 15.7041 5.25568 15.8154C5.15814 16.0518 5.05185 16.2767 4.97274 16.3558ZM5.98015 17.0598C5.70987 17.0598 5.49084 16.8407 5.49084 16.5704C5.49084 16.4592 5.57381 16.2268 5.67143 15.9919C5.77065 16.0153 5.87393 16.0281 5.98015 16.0281C6.0864 16.0281 6.18968 16.0153 6.2889 15.9919C6.38648 16.2268 6.46949 16.4592 6.46949 16.5704C6.46941 16.8406 6.25035 17.0598 5.98015 17.0598ZM5.98015 15.4453C5.5592 15.4453 5.21798 15.1041 5.21798 14.6831C5.21798 14.2622 5.5592 13.9209 5.98015 13.9209C6.40109 13.9209 6.74235 14.2622 6.74235 14.6831C6.74227 15.104 6.40105 15.4453 5.98015 15.4453ZM7.67951 16.3558C7.48842 16.5469 7.17861 16.5469 6.98755 16.3558C6.90848 16.2767 6.80215 16.0518 6.70465 15.8154C6.87805 15.7041 7.02454 15.5543 7.13142 15.3778C7.37064 15.4761 7.59959 15.5839 7.67955 15.6638C7.87057 15.8549 7.87057 16.1647 7.67951 16.3558ZM7.89409 15.1458C7.77987 15.1458 7.53803 15.0583 7.29689 14.9574C7.31533 14.8688 7.32505 14.7771 7.32505 14.6831C7.32505 14.5719 7.31123 14.4638 7.2856 14.3602C7.53045 14.2574 7.77803 14.1672 7.89405 14.1672C8.16433 14.1672 8.3834 14.3862 8.3834 14.6565C8.3834 14.9267 8.16433 15.1458 7.89409 15.1458Z" fill="#2A38B1"/>
<path d="M19.2741 18.5489L17.8899 14.6015L17.8825 11.9477L15.7155 14.4573L15.7164 14.7928C15.7168 14.9154 15.7379 15.037 15.7788 15.1526L17.2249 19.2747C17.4254 19.8408 18.0467 20.1368 18.6124 19.9365C19.1783 19.736 19.4745 19.1148 19.2741 18.5489Z" fill="#2A38B1"/>
<path d="M11.5266 3.75445C12.5634 3.75445 13.4039 2.91399 13.4039 1.87722C13.4039 0.840462 12.5634 0 11.5266 0C10.4899 0 9.64941 0.840462 9.64941 1.87722C9.64941 2.91399 10.4899 3.75445 11.5266 3.75445Z" fill="#2A38B1"/>
<path d="M18.1719 7.92762L15.5384 3.73535C15.1658 3.14225 14.383 2.96354 13.7899 3.33604L11.8749 4.53904C11.2818 4.91162 11.1031 5.69441 11.4756 6.28747L11.6771 6.60822L12.6937 4.88182L11.7515 8.19548L8.76712 9.14979C8.29121 9.30198 8.02867 9.81437 8.18027 10.2884C8.33059 10.7586 8.83724 11.0294 9.31893 10.8753L12.8345 9.74961C13.124 9.65703 13.347 9.42573 13.4299 9.13459L14.4067 5.51199C14.3962 5.86742 14.31 8.78904 14.2991 9.16022C14.2902 9.45968 14.0733 9.88043 13.8641 10.0897L14.0547 10.3931L14.0547 10.3931L14.401 10.9445L15.1436 10.4626L12.6839 13.3112C12.5699 13.4433 12.4892 13.601 12.449 13.7708L11.2283 18.6611C11.0898 19.2452 11.451 19.831 12.0351 19.9696C12.6182 20.1079 13.2047 19.7478 13.3435 19.1627L14.5029 14.531L17.9913 10.4301C18.5914 9.72476 18.6644 8.71173 18.1719 7.92762Z" fill="#2A38B1"/>
<path d="M11.2552 13.6963V13.6962C11.1897 13.5637 11.0535 13.4724 10.8957 13.4724H10.4989L10.8426 13.2739C11.0345 13.1632 11.1003 12.9177 10.9895 12.7257L10.2722 11.4832L9.58407 11.7036C8.3067 12.1123 7.16902 11.1691 7.16902 10.0133C7.16902 9.92219 7.17617 9.83246 7.18988 9.74461C7.17793 9.53374 7.00363 9.36624 6.78972 9.36624H5.17082C4.94917 9.36624 4.76952 9.54589 4.76952 9.76754V10.1644L4.57108 9.82066C4.46026 9.62871 4.21482 9.56296 4.02287 9.67375L2.62077 10.4833C2.42881 10.5942 2.36307 10.8396 2.47385 11.0315L2.67229 11.3752L2.32858 11.1768C2.13662 11.066 1.89122 11.1317 1.78036 11.3237L0.970892 12.7257C0.860109 12.9177 0.925852 13.1631 1.11781 13.2739L1.46153 13.4724H1.06457C0.842921 13.4724 0.663269 13.652 0.663269 13.8737V15.4926C0.663269 15.7142 0.842921 15.8939 1.06457 15.8939H1.46141L1.11769 16.0923C0.925735 16.2031 0.859992 16.4486 0.970775 16.6405L1.78024 18.0425C1.89103 18.2345 2.1365 18.3002 2.32846 18.1895L2.67218 17.991L2.47373 18.3347C2.36291 18.5267 2.42869 18.7721 2.62065 18.883L4.02267 19.6924C4.21463 19.8032 4.46002 19.7375 4.57088 19.5455L4.76933 19.2018V19.5986C4.76933 19.8203 4.94898 19.9999 5.17062 19.9999H6.78952C7.01117 19.9999 7.19082 19.8203 7.19082 19.5986V19.2018L7.38926 19.5455C7.50004 19.7375 7.74552 19.8032 7.93747 19.6924L9.33949 18.883C9.53145 18.7722 9.59719 18.5267 9.48641 18.3347L9.28797 17.991L9.63169 18.1895C9.82364 18.3003 10.069 18.2345 10.1799 18.0425L10.2968 17.84L10.9894 16.6405C11.1002 16.4486 11.0344 16.2032 10.8425 16.0923L10.4987 15.8939H10.8956C11.1172 15.8939 11.2969 15.7142 11.2969 15.4925C11.297 13.7077 11.3141 13.8154 11.2552 13.6963ZM5.98013 18.2411C4.01822 18.2411 2.42209 16.645 2.42209 14.6831C2.42209 12.7212 4.01826 11.1251 5.98013 11.1251C7.942 11.1251 9.53817 12.7212 9.53817 14.6831C9.53813 16.6451 7.94204 18.2411 5.98013 18.2411Z" fill="#2A38B1"/>
</g>
<defs>
<clipPath id="clip0_58_35">
<rect width="20" height="20" fill="white"/>
</clipPath>
</defs>
</svg>
