<svg width="20" height="20" viewBox="0 0 20 20" fill="none" xmlns="http://www.w3.org/2000/svg">
<path d="M3.15625 18.0313C2.85938 18.0313 2.5625 17.9062 2.35938 17.6875C1.92187 17.25 1.92187 16.5156 2.35938 16.0781C2.57812 15.8594 2.85938 15.7344 3.15625 15.7344C3.45312 15.7344 3.75 15.8594 3.95312 16.0781C4.39062 16.5156 4.39062 17.25 3.95312 17.6875C3.75 17.9219 3.46875 18.0313 3.15625 18.0313ZM3.15625 16.7031C3.10938 16.7031 3.0625 16.7188 3.03125 16.75C2.95312 16.8281 2.95312 16.9531 3.03125 17.0313C3.0625 17.0625 3.10938 17.0781 3.15625 17.0781C3.20312 17.0781 3.25 17.0625 3.28125 17.0313C3.35937 16.9531 3.35937 16.8281 3.28125 16.75C3.25 16.7188 3.20312 16.7031 3.15625 16.7031Z" fill="#2A38B1"/>
<path d="M3.48437 18.9844C3 18.9844 2.5625 18.7969 2.21875 18.4531L1.75 17.9844C1.0625 17.2812 1.0625 16.1406 1.75 15.4375L1.78125 15.4062L10.0469 8.32812C9.54687 7.48438 9.3125 6.5 9.39062 5.51562C9.46875 4.35938 9.95312 3.28125 10.75 2.46875C11.6406 1.5625 12.8281 1.0625 14.0937 1.0625C14.7031 1.0625 15.3125 1.1875 15.875 1.42188C16.0156 1.48438 16.125 1.60938 16.1562 1.76562C16.1875 1.92188 16.1406 2.07812 16.0312 2.1875L13.6094 4.625L15.25 6.29688L17.6562 3.875C17.75 3.78125 17.875 3.73437 18 3.73437C18.0312 3.73437 18.0625 3.73438 18.0937 3.75C18.25 3.78125 18.375 3.89062 18.4375 4.03125C18.7969 4.89062 18.8906 5.84375 18.7187 6.76562C18.5469 7.71875 18.0937 8.57812 17.4219 9.26562C16.5312 10.1719 15.3594 10.6719 14.1094 10.6719C13.4219 10.6719 12.7344 10.5156 12.125 10.2188L4.75 18.4531C4.40625 18.7969 3.95312 18.9844 3.48437 18.9844ZM2.42188 16.1094C2.10938 16.4531 2.10938 16.9844 2.4375 17.3125L2.90625 17.7812C3.0625 17.9375 3.26562 18.0312 3.48437 18.0312C3.70312 18.0312 3.90625 17.9375 4.0625 17.7812L11.6562 9.29688C11.75 9.20312 11.875 9.14062 12.0156 9.14062C12.0937 9.14062 12.1875 9.15625 12.25 9.20312C12.8125 9.53125 13.4531 9.70312 14.1094 9.70312C15.1094 9.70312 16.0312 9.3125 16.7344 8.59375C17.625 7.67188 18.0156 6.375 17.7656 5.10938L15.5781 7.3125C15.4844 7.40625 15.3594 7.45312 15.2344 7.45312C15.1094 7.45312 14.9844 7.40625 14.8906 7.3125L12.6094 4.95313C12.4219 4.76563 12.4219 4.46875 12.6094 4.28125L14.7969 2.07812C14.5625 2.03125 14.3281 2.01562 14.0937 2.01562C13.0937 2.01562 12.1406 2.42188 11.4375 3.14062C10.1094 4.48438 9.96875 6.59375 11.0781 8.14062C11.2187 8.34375 11.1875 8.625 11 8.78125L2.42188 16.1094Z" fill="#2A38B1"/>
<path d="M7.92187 10.2031C7.79687 10.2031 7.67187 10.1562 7.57812 10.0625L4.21874 6.64062H3.07812C2.90624 6.64062 2.74999 6.54688 2.67187 6.40625L1.12499 3.875C1.01562 3.6875 1.04687 3.4375 1.20312 3.28125L2.45312 2.01562C2.54687 1.92187 2.67187 1.875 2.79687 1.875C2.89062 1.875 2.96874 1.90625 3.04687 1.95312L5.59374 3.54688C5.73437 3.64063 5.81249 3.78125 5.81249 3.9375L5.82812 5.07812L9.28124 8.625C9.37499 8.71875 9.42187 8.84375 9.42187 8.96875C9.42187 9.09375 9.37499 9.21875 9.28124 9.29688C9.18749 9.39062 9.07812 9.4375 8.95312 9.4375C8.82812 9.4375 8.70312 9.39062 8.60937 9.29688L4.99999 5.60938C4.92187 5.51563 4.85937 5.40625 4.85937 5.28125L4.84374 4.20312L2.84374 2.95312L2.12499 3.6875L3.34374 5.6875H4.40624C4.53124 5.6875 4.65624 5.73437 4.74999 5.82812L8.24999 9.39062C8.34374 9.48438 8.39062 9.60938 8.39062 9.73438C8.39062 9.85938 8.34374 9.98438 8.24999 10.0781C8.17187 10.1562 8.04687 10.2031 7.92187 10.2031ZM15.0156 19.125C14.7187 19.125 14.4219 19 14.2187 18.7812L10.1719 14.6094C9.73437 14.1719 9.73437 13.4531 10.1719 13L10.2969 12.875L10.1562 12.7344C9.96874 12.5469 9.96874 12.25 10.1719 12.0625C10.2656 11.9687 10.375 11.9219 10.5 11.9219C10.625 11.9219 10.75 11.9687 10.8437 12.0625L11.3125 12.5312C11.5 12.7188 11.4844 13.0156 11.3125 13.2031L10.8594 13.6719C10.7812 13.75 10.7812 13.875 10.8594 13.9531L14.9062 18.125C14.9375 18.1562 14.9844 18.1719 15.0312 18.1719C15.0781 18.1719 15.125 18.1562 15.1562 18.125L17 16.2344C17.0781 16.1562 17.0781 16.0312 17 15.9531L12.9375 11.7812C12.9062 11.75 12.8594 11.7344 12.8125 11.7344C12.7656 11.7344 12.7187 11.75 12.6875 11.7812L12.1875 12.2969C12.0937 12.3906 11.9687 12.4375 11.8437 12.4375C11.7187 12.4375 11.5937 12.3906 11.5 12.2969L11.0937 11.8438C11 11.75 10.9531 11.625 10.9531 11.5C10.9531 11.375 11 11.25 11.0937 11.1719C11.1875 11.0781 11.2969 11.0312 11.4219 11.0312C11.5469 11.0312 11.6719 11.0781 11.7656 11.1719L11.8594 11.2656L12.0156 11.1094C12.2344 10.8906 12.5156 10.7656 12.8125 10.7656C13.1094 10.7656 13.4062 10.8906 13.6094 11.1094L17.6562 15.2812C18.0937 15.7188 18.0937 16.4531 17.6562 16.8906L15.8125 18.7812C15.6094 19 15.3281 19.125 15.0156 19.125Z" fill="#2A38B1"/>
</svg>
